<?xml version="1.0" encoding="utf-8"?>
<!-- Generator: Adobe Illustrator 16.0.0, SVG Export Plug-In . SVG Version: 6.00 Build 0)  -->
<!DOCTYPE svg PUBLIC "-//W3C//DTD SVG 1.1//EN" "http://www.w3.org/Graphics/SVG/1.1/DTD/svg11.dtd">
<svg version="1.1" id="Layer_1" xmlns="http://www.w3.org/2000/svg" xmlns:xlink="http://www.w3.org/1999/xlink" x="0px" y="0px"
	 width="150px" height="150px" viewBox="0 0 150 150" enable-background="new 0 0 150 150" xml:space="preserve">
<circle fill="none" stroke="#FFFFFF" stroke-width="2" stroke-miterlimit="10" cx="74.25" cy="81.272" r="65.933"/>
<g>
	<path fill="none" stroke="#FFFFFF" stroke-width="2" stroke-miterlimit="10" d="M74.25,9.047c4.326,0,7.958,2.938,9.034,6.924
		c5.02,0.688,9.859,1.938,14.452,3.691C94.31,9.986,85.103,3.041,74.25,3.041S54.191,9.985,50.764,19.662
		c4.593-1.752,9.433-3.003,14.452-3.691C66.292,11.985,69.925,9.047,74.25,9.047z"/>
	<path fill="none" stroke="#FFFFFF" stroke-width="2" stroke-miterlimit="10" d="M74.25,9.047c-4.325,0-7.958,2.938-9.034,6.924
		c2.955-0.405,5.968-0.632,9.034-0.632s6.079,0.227,9.034,0.632C82.208,11.985,78.576,9.047,74.25,9.047z"/>
</g>
<circle fill="none" stroke="#FFFFFF" stroke-width="2" stroke-miterlimit="10" cx="74.25" cy="81.272" r="59.099"/>
<circle fill="none" stroke="#FFFFFF" stroke-width="2" stroke-miterlimit="10" cx="74.25" cy="81.272" r="54.699"/>
<g>
	<g>
		<g>
			<path fill="none" stroke="#FFFFFF" stroke-width="2" stroke-miterlimit="10" d="M39.301,66.985
				c-0.494-0.695-0.954-1.41-1.007-1.724l1.199-1.601"/>
			
				<line fill="none" stroke="#FFFFFF" stroke-width="2" stroke-miterlimit="10" stroke-dasharray="2.6794,3.3493" x1="41.501" y1="60.98" x2="44.111" y2="57.496"/>
			<polyline fill="none" stroke="#FFFFFF" stroke-width="2" stroke-miterlimit="10" points="45.115,56.155 46.314,54.555 
				45.647,52.669 			"/>
			<path fill="none" stroke="#FFFFFF" stroke-width="2" stroke-miterlimit="10" stroke-dasharray="3.8851,4.8563" d="M46.322,49.046
				c0.283,0.09,0.632,0.261,1.058,0.56l2.823,2.664l8.367,0.416c0,0,2.904-0.842,5.726,2.141c0,0,4.161,5.174,12.554,13.174h17.49
				c0,0,7.921,0.24,10.512,11.689l0.704,30.672c0,0,0.47,2.827-1.49,2.356l-4.783,0.172c0,0-1.412,0.315-1.412-2.115
				c0,0-1.176-8.262-3.295-14.165"/>
			<path fill="none" stroke="#FFFFFF" stroke-width="2" stroke-miterlimit="10" d="M93.659,94.358
				c-0.307-0.655-0.629-1.247-0.966-1.752c0,0-0.828,0.073-1.991,0.15"/>
			<path fill="none" stroke="#FFFFFF" stroke-width="2" stroke-miterlimit="10" stroke-dasharray="4.0939,5.1174" d="M85.587,92.937
				c-0.225-0.004-0.439-0.011-0.641-0.021c-2.668-0.137-11.979,0.381-17.474-1.502c0,0-0.743,0.043-1.176,2.043l-3.217,17.495
				c0,0,0.041,1.256-1.883,1.099l-3.371-0.038c0,0-1.687,0.744-1.371-3.217l-1.648-26.748c0,0-0.156-4.313-1.674-6.145l-3.451-6.274
				c0,0-1.254-1.987-2.51-1.569c0,0-1.779,0.314-3.609,1.203c0,0-1.809,0.971-2.751-0.209"/>
		</g>
	</g>
</g>
</svg>
