<?xml version="1.0" encoding="utf-8"?>
<!-- Generator: Adobe Illustrator 16.0.0, SVG Export Plug-In . SVG Version: 6.00 Build 0)  -->
<!DOCTYPE svg PUBLIC "-//W3C//DTD SVG 1.1//EN" "http://www.w3.org/Graphics/SVG/1.1/DTD/svg11.dtd">
<svg version="1.1" id="Layer_1" xmlns="http://www.w3.org/2000/svg" xmlns:xlink="http://www.w3.org/1999/xlink" x="0px" y="0px"
	 width="150px" height="150px" viewBox="0 0 150 150" enable-background="new 0 0 150 150" xml:space="preserve">
<circle fill="none" stroke="#FFFFFF" stroke-width="3" stroke-miterlimit="10" cx="74.25" cy="81.272" r="65.933"/>
<g>
	<path fill="none" stroke="#FFFFFF" stroke-width="3" stroke-miterlimit="10" d="M74.25,9.047c4.326,0,7.958,2.938,9.034,6.924
		c5.02,0.688,9.859,1.938,14.452,3.691C94.31,9.986,85.103,3.041,74.25,3.041S54.191,9.985,50.764,19.662
		c4.593-1.752,9.433-3.003,14.452-3.691C66.292,11.985,69.925,9.047,74.25,9.047z"/>
	<path fill="none" stroke="#FFFFFF" stroke-width="3" stroke-miterlimit="10" d="M74.25,9.047c-4.325,0-7.958,2.938-9.034,6.924
		c2.955-0.405,5.968-0.632,9.034-0.632s6.079,0.227,9.034,0.632C82.208,11.985,78.576,9.047,74.25,9.047z"/>
</g>
<circle fill="none" stroke="#FFFFFF" stroke-width="3" stroke-miterlimit="10" cx="74.25" cy="81.272" r="59.099"/>
<circle fill="none" stroke="#FFFFFF" stroke-width="3" stroke-miterlimit="10" cx="74.25" cy="81.272" r="54.699"/>
<g>
	<g>
		<g>
			<path fill="none" stroke="#FFFFFF" stroke-width="3" stroke-miterlimit="10" d="M37.186,66.01
				c-0.497-0.706-0.944-1.41-0.998-1.729l1.199-1.601"/>
			
				<line fill="none" stroke="#FFFFFF" stroke-width="3" stroke-miterlimit="10" stroke-dasharray="2.9186,3.6482" x1="39.575" y1="59.761" x2="42.418" y2="55.965"/>
			<polyline fill="none" stroke="#FFFFFF" stroke-width="3" stroke-miterlimit="10" points="43.512,54.505 44.711,52.905 
				44.043,51.02 			"/>
			<path fill="none" stroke="#FFFFFF" stroke-width="3" stroke-miterlimit="10" stroke-dasharray="3.8855,4.8569" d="M44.301,46.963
				c0.349,0.031,0.85,0.199,1.542,0.683l3,2.831l8.891,0.442c0,0,3.086-0.74,6.084,2.429c0,0,4.421,5.152,13.339,14.152H95.74
				c0,0,8.417,0.101,11.17,12.267l0.748,32.513c0,0,0.499,2.965-1.584,2.465l-5.082,0.164c0,0-1.501,0.325-1.501-2.257
				c0,0-1.285-9.035-3.598-15.323"/>
			<path fill="none" stroke="#FFFFFF" stroke-width="3" stroke-miterlimit="10" d="M94.962,95.081
				c-0.31-0.649-0.633-1.238-0.971-1.744c0,0-0.82,0.072-1.99,0.151"/>
			<path fill="none" stroke="#FFFFFF" stroke-width="3" stroke-miterlimit="10" stroke-dasharray="4.0125,5.0156" d="M86.985,93.693
				c-0.44-0.001-0.854-0.009-1.226-0.028c-2.835-0.146-12.729,0.404-18.567-1.597c0,0-0.79,0.046-1.249,2.171l-3.418,18.59
				c0,0,0.043,1.334-2,1.167l-3.582-0.04c0,0-1.792,0.791-1.457-3.418l-1.751-28.421c0,0-0.166-4.584-1.779-6.529l-3.667-6.667
				c0,0-1.332-2.112-2.667-1.667c0,0-1.891,0.334-3.835,1.278c0,0-2.187,1.175-3.111-0.505"/>
		</g>
	</g>
</g>
</svg>
